PathFileType	4	(X/Y/Z)	C:\Users\WrightLab\Desktop\Jo\P2_Trial27.trc
DataRate	CameraRate	NumFrames	NumMarkers	Units	OrigDataRate	OrigDataStartFrame	OrigNumFrames
100.00	100.00	       63	19	mm	100.00	439	       501
Frame#	Time	Headset_Front			Headset_Back			Headset_Left			Headset_Right			Left_Shoulder			Right_Shoulder			Sternum			C7			Left Elbow			Right Elbow			Left Wrist			Right Wrist			Left ASIS			Right ASIS			S2			Left Knee			Right Knee			Left Ankle			Right Ankle			
		X1	Y1	Z1	X2	Y2	Z2	X3	Y3	Z3	X4	Y4	Z4	X5	Y5	Z5	X6	Y6	Z6	X7	Y7	Z7	X8	Y8	Z8	X9	Y9	Z9	X10	Y10	Z10	X11	Y11	Z11	X12	Y12	Z12	X13	Y13	Z13	X14	Y14	Z14	X15	Y15	Z15	X16	Y16	Z16	X17	Y17	Z17	X18	Y18	Z18	X19	Y19	Z19	

439	4.380	-213.63684	1478.87854	2369.26685																																								-218.25490	1004.44885	2505.21899	-525.12323	523.55249	2564.84692	-201.24498	557.27673	2304.06470							
440	4.390	-213.84955	1479.80505	2378.68921																																								-221.89099	1005.89288	2514.50488	-525.62933	522.14825	2568.53125	-198.45148	558.64240	2315.83276							
441	4.400	-214.11638	1480.76257	2388.00195																																								-225.89684	1006.70313	2521.73682				-194.55740	560.38025	2329.57568							
442	4.410	-214.45862	1481.12622	2397.00928																																								-229.42770	1007.55383	2529.52588				-190.16441	561.74078	2342.05322							
443	4.420	-215.20868	1481.96777	2406.12158																																								-233.13551	1008.97321	2537.77124				-185.93298	563.42224	2351.88843							
444	4.430	-215.39803	1482.15698	2414.93408																																								-236.74547	1009.76709	2544.94116				-180.48390	565.01587	2362.05615							
445	4.440	-215.87477	1482.69116	2423.42139																																								-240.36931	1009.66223	2551.22876				-174.99423	566.63727	2374.79077							
446	4.450	-216.31818	1483.02405	2432.11841																																								-243.87843	1010.47296	2557.51221				-169.70631	567.03479	2387.17554							
447	4.460	-216.68456	1483.45569	2440.49536																																								-246.80545	1010.33752	2562.56470				-163.91222	566.71582	2397.51660							
448	4.470	-216.78706	1483.73584	2448.21802																																								-249.50772	1010.37280	2568.47095				-157.94044	568.03516	2408.79761							
449	4.480	-217.24547	1484.39722	2456.35181																																								-252.44981	1010.89355	2574.66138				-150.60886	568.27899	2418.67969							
450	4.490	-217.51192	1484.97205	2464.22388																																								-255.53082	1011.30231	2580.87451				-144.61914	570.69092	2431.59082							
451	4.500	-217.96613	1485.64819	2472.09937																																								-258.66254	1011.23279	2586.57324				-137.49228	569.06262	2441.00903							
452	4.510	-218.37086	1486.19531	2479.21094																																								-261.55499	1011.58527	2591.93237				-129.76332	570.98950	2456.48682							
453	4.520	-218.94186	1487.07422	2486.44897																																								-264.47256	1011.35840	2597.05322				-119.49456	571.98547	2470.27856							
454	4.530	-219.62810	1487.82947	2493.63013																																								-266.76456	1012.27155	2602.57642				-111.70195	571.17578	2485.71338							
455	4.540	-220.04492	1488.57288	2500.06250																																								-268.62576	1013.25635	2608.39307				-102.37134	575.82983	2505.16992							
456	4.550																																											-270.23749	1013.99872	2613.21606				-94.76926	580.51520	2523.68066							
457	4.560																																											-271.96313	1014.48962	2618.75977				-90.09507	583.93347	2539.83179							
458	4.570																																											-273.27277	1016.34308	2624.85986				-85.45072	589.35065	2561.74536							
459	4.580																																											-275.37317	1017.68219	2629.87769				-82.97292	594.74353	2580.17993							
460	4.590																																											-277.20032	1019.42340	2635.91406				-81.28878	599.66412	2601.63208							
461	4.600																																											-279.45715	1021.20770	2642.24048				-82.64061	602.86469	2617.13330							
462	4.610																																											-281.98016	1022.53064	2647.15576				-82.89051	606.46631	2635.85156							
463	4.620																																											-284.71777	1023.52094	2653.14722				-84.87849	609.89655	2652.70410							
464	4.630																																											-287.26825	1024.52222	2659.10400				-88.85939	611.86328	2668.45459							
465	4.640																																											-290.08920	1025.27075	2664.54614				-93.04230	614.03833	2680.79492							
466	4.650																																											-293.08862	1026.01416	2669.66089				-97.19089	616.03735	2694.47949							
467	4.660																																																	-101.70850	617.62476	2705.74438							
468	4.670																																																	-107.17223	619.22791	2716.31836							
469	4.680																																																	-111.42569	619.26721	2726.30957							
470	4.690																																																	-117.62809	620.92651	2736.32153							
471	4.700																																																	-121.04613	619.60150	2744.66309							
472	4.710																																																	-126.93742	619.15619	2750.37964							
473	4.720																																																	-131.20934	618.23810	2756.08960							
474	4.730																																																	-135.34955	617.57159	2760.58838							
475	4.740																																																	-139.80885	616.15338	2762.93457							
476	4.750																																																	-144.54193	615.05884	2765.12646							
477	4.760																																																	-150.01776	616.43518	2766.72168							
478	4.770																																																	-153.28383	618.35907	2768.33423							
479	4.780																																																	-156.62663	618.33960	2767.20703							
480	4.790																																																	-159.72984	620.82483	2767.70459							
481	4.800																																																	-161.99258	620.74347	2766.05298							
482	4.810																																																	-163.06923	621.70282	2765.52588							
483	4.820																																																	-163.33669	622.41699	2764.81030							
484	4.830																																																	-161.96313	621.18683	2764.12256							
485	4.840																																																	-159.35197	619.76227	2764.24683							
486	4.850																																																	-155.77452	619.04211	2764.57861							
487	4.860																																																	-151.49789	618.02997	2764.78979							
488	4.870																																																	-146.76553	616.57599	2765.93555							
489	4.880																																																	-141.44899	615.78638	2766.24438							
490	4.890																																																	-135.98482	614.28021	2767.75244							
491	4.900																																																	-130.19934	613.74506	2768.55981							
492	4.910																																																	-123.91388	612.77722	2769.56445							
493	4.920																																																	-117.08370	612.02533	2770.30713							
494	4.930																																																	-110.70252	612.12720	2771.27100							
495	4.940																																																	-104.33617	612.40204	2772.39233							
496	4.950																																																	-98.03153	612.33466	2772.57886							
497	4.960																																																	-91.81110	612.24603	2772.48633							
498	4.970																																																	-85.67113	611.79608	2771.08789							
499	4.980																																																	-80.28400	611.77533	2769.40015							
500	4.990																																																	-75.78601	612.02643	2768.83447							
501	5.000																																																	-72.39710	612.82739	2768.00757							
